<!DOCTYPE svg PUBLIC "-//W3C//DTD SVG 1.1//EN" "http://www.w3.org/Graphics/SVG/1.1/DTD/svg11.dtd">
<!-- Uploaded to: SVG Repo, www.svgrepo.com, Transformed by: SVG Repo Mixer Tools -->
<svg fill="#6ae36a" width="800px" height="800px" viewBox="-30.4 -30.4 92.80 92.80" version="1.1" xmlns="http://www.w3.org/2000/svg" stroke="#6ae36a" stroke-width="0.00032">
<g id="SVGRepo_bgCarrier" stroke-width="0"/>
<g id="SVGRepo_tracerCarrier" stroke-linecap="round" stroke-linejoin="round"/>
<g id="SVGRepo_iconCarrier"> <title>anaconda</title> <path d="M3.349 24.095l0.144 0.215c0.881 1.318 1.916 2.446 3.098 3.398l0.029 0.023 0.196 0.161v-0.251c-0.124-0.841-0.213-1.849-0.249-2.871l-0.001-0.048v-0.089h-0.090c-1.083-0.105-2.062-0.275-3.014-0.513l0.14 0.030zM7.46 21.471v0.142c-0.096 0.662-0.164 1.452-0.188 2.252l-0.001 0.032v0.097h1.163c0.359 0 0.78 0.017 1.182 0h0.261l-0.207-0.161c-0.794-0.654-1.472-1.41-2.026-2.254l-0.023-0.038zM4.281 20.010l-0.044 0.1c-0.445 0.867-0.862 1.893-1.191 2.958l-0.037 0.14v0.1h0.107c0.961 0.277 2.102 0.498 3.273 0.618l0.086 0.007 0.090 0.009v-0.108c0.020-0.926 0.094-1.815 0.219-2.687l-0.014 0.117v-0.081h-0.080c-0.919-0.377-1.679-0.753-2.41-1.172l0.099 0.052zM1.103 17.755v0.25c0.206 1.546 0.621 2.948 1.22 4.247l-0.038-0.091 0.097 0.232 0.090-0.242c0.345-0.993 0.702-1.819 1.109-2.613l-0.053 0.114 0.071-0.079-0.080-0.054c-0.843-0.534-1.567-1.063-2.255-1.633l0.036 0.029zM6.072 17.155l-0.151 0.215c-0.371 0.507-0.75 1.091-1.096 1.697l-0.050 0.094-0.054 0.090 0.089 0.054c0.518 0.298 1.159 0.618 1.818 0.905l0.134 0.052 0.241 0.107-0.107-0.241c-0.377-0.787-0.665-1.699-0.817-2.657l-0.008-0.057zM3.754 14.567l-0.090 0.062c-0.824 0.68-1.565 1.389-2.249 2.148l-0.016 0.019-0.072 0.072 0.082 0.071c0.738 0.651 1.551 1.262 2.409 1.807l0.079 0.047 0.090 0.062 0.054-0.1c0.451-0.797 0.886-1.466 1.357-2.108l-0.041 0.058v-0.062l-0.054-0.062c-0.5-0.573-0.988-1.2-1.441-1.854l-0.046-0.071zM6.52 12.686l-0.225 0.125c-0.581 0.341-1.162 0.716-1.718 1.111l-0.081 0.062 0.062 0.080c0.386 0.546 0.806 1.083 1.245 1.595l0.171 0.206v-0.26c0.034-0.97 0.198-1.89 0.475-2.759l-0.020 0.072zM1.809 11.12l-0.079 0.25c-0.422 1.247-0.684 2.685-0.726 4.178l-0 0.020v0.261l0.179-0.19c0.614-0.633 1.26-1.224 1.939-1.776l0.041-0.032 0.071-0.054-0.054-0.080c-0.425-0.654-0.852-1.42-1.229-2.214l-0.052-0.123zM5.69 8.943c-1.245 0.23-2.336 0.54-3.383 0.939l0.131-0.044h-0.097v0.099c0.495 1.234 1.026 2.28 1.636 3.272l-0.053-0.093 0.054 0.089 0.090-0.061c0.617-0.448 1.325-0.896 2.061-1.3l0.106-0.053 0.071-0.044v-0.070c-0.198-0.717-0.377-1.604-0.498-2.509l-0.012-0.108v-0.115zM8.877 8.772c-0.696 0.010-1.369 0.059-2.031 0.144l0.088-0.009c0.080 0.654 0.196 1.297 0.34 1.942 0.468-0.788 0.999-1.47 1.604-2.077l-0 0zM11.034 5.737c-0.179 0.546-0.331 1.11-0.475 1.683 0.599-0.383 1.288-0.721 2.015-0.981l0.072-0.022c-0.529-0.25-1.056-0.475-1.612-0.68zM5.528 5.378c-0.876 0.869-1.645 1.845-2.284 2.907l-0.038 0.067c0.62-0.196 1.41-0.388 2.216-0.535l0.13-0.020c-0.030-0.426-0.047-0.922-0.047-1.423 0-0.351 0.008-0.699 0.025-1.046l-0.002 0.049zM6.853 4.689c-0.036 0.437-0.057 0.946-0.057 1.46s0.021 1.023 0.061 1.526l-0.004-0.066c0.734-0.081 1.495-0.125 2.264-0.134 0.192-0.885 0.399-1.616 0.643-2.33l-0.043 0.146c-0.795-0.239-1.764-0.449-2.755-0.589l-0.109-0.013zM12.78 1.942c-0.417 0.693-0.833 1.514-1.193 2.364l-0.050 0.133c0.82 0.287 1.483 0.566 2.126 0.877l-0.12-0.053q0.253-0.331 0.537-0.636 0.439-0.536 0.895-1.021c-0.653-0.578-1.369-1.126-2.123-1.621l-0.071-0.044zM11.214 1.852c-1.253 0.438-2.336 0.976-3.338 1.629l0.059-0.036c0.897 0.157 1.659 0.344 2.403 0.574l-0.137-0.037c0.362-0.871 0.701-1.571 1.074-2.251l-0.061 0.121zM16.056 1.046c-0.6 0.001-1.191 0.036-1.772 0.104l0.071-0.007c0.847 0.587 1.586 1.175 2.284 1.807l-0.018-0.016 0.6 0.547-0.581 0.562c-0.491 0.471-0.951 0.963-1.384 1.477l-0.024 0.029-0.222 0.269c0.319-0.037 0.692-0.060 1.070-0.062l0.004-0c5.578 0.066 10.074 4.603 10.074 10.19 0 5.628-4.563 10.191-10.191 10.191-1.935 0-3.744-0.539-5.284-1.475l0.045 0.026c-0.684 0.084-1.477 0.132-2.28 0.132-0.007 0-0.014 0-0.021 0h-1.074c0.034 1.294 0.153 2.53 0.351 3.739l-0.021-0.158c2.344 1.599 5.239 2.553 8.357 2.553 8.259 0 14.954-6.695 14.954-14.954 0-8.253-6.686-14.945-14.938-14.954h-0.001z"/> </g>
</svg>