<!DOCTYPE svg PUBLIC "-//W3C//DTD SVG 1.1//EN" "http://www.w3.org/Graphics/SVG/1.1/DTD/svg11.dtd">

<!-- Uploaded to: SVG Repo, www.svgrepo.com, Transformed by: SVG Repo Mixer Tools -->
<svg fill="#000" width="800px" height="800px" viewBox="0.381 -165.87300000000002 413.189 413.189" xmlns="http://www.w3.org/2000/svg">

<g id="SVGRepo_bgCarrier" stroke-width="0"/>

<g id="SVGRepo_tracerCarrier" stroke-linecap="round" stroke-linejoin="round"/>

<g id="SVGRepo_iconCarrier"> <path d="M10.82 3.77C18.06.24 26.53.13 34.29 1.72c5.88 1.41 12.12 4.74 14.34 10.72 2.22 6.89 1.74 14.24 1.75 21.37-7.05-.03-14.1 0-21.14-.01-.149-5.92.32-11.87-.29-17.77.13-4.08-7.1-4.05-7 .03-.76 9.28-.18 18.62-.359 27.93.17 5.939-.431 11.96.51 17.85.58 2.36 3.54 2.54 5.41 1.74 1.439-1.03 1.47-2.92 1.62-4.51.23-4.42.05-8.84.11-13.26 7.059-.02 14.109-.01 21.169-.01-.21 6.71.39 13.85-2.43 20.12-4.68 7.75-14.44 10.66-23.04 10.391-7.58-.07-16.26-1.82-20.97-8.351C.6 62.68.72 56.1.45 50.061.5 39.35.09 28.62.83 17.93c.31-6.15 4.53-11.58 9.99-14.16zM61.76 2.08c10.24-.14 20.49-.13 30.73 0 3.89 24.26 8.05 48.48 12.01 72.73-6.59-.021-13.18 0-19.77-.021-.58-4.54-1.01-9.101-1.72-13.63-2.351.04-4.71.04-7.061.029.42-4.06.88-8.119 1.32-12.18 1.45 0 2.89-.01 4.34-.01-1.32-10.39-2.31-20.83-3.9-31.18-2.06 19.02-4.54 37.991-6.8 56.991C64.3 74.8 57.68 74.8 51.07 74.8c3.52-24.239 7.24-48.46 10.69-72.72zM108.12 2.01c7.01-.02 14.03-.01 21.05-.01.01 19.4 0 38.79.01 58.189 4.29.021 8.58.011 12.87.011.02 4.87.01 9.729.01 14.6-11.31.011-22.62-.01-33.93 0-.02-24.26 0-48.53-.01-72.79zM147.06 2.01c7.03-.02 14.07-.01 21.11-.01.02 19.4 0 38.79.01 58.189 4.25.021 8.5.011 12.75.011.01 4.87.01 9.729.01 14.6h-33.87c-.02-24.26 0-48.53-.01-72.79zM207.12 2.01c9.3-.07 18.61 0 27.899.41 4.891.35 10.01.69 14.371 3.16 3.93 2.36 6.34 6.83 6.379 11.4.641 12.66.271 25.36.311 38.03-.25 5.23.3 11.311-3.49 15.48-4.221 3.859-10.279 4.05-15.689 4.27-9.92.11-19.85 0-29.781.04-.01-24.26 0-48.53 0-72.79m21.11 12.52c.01 15.98.01 31.951 0 47.93 2.01-.44 5.07-.03 5.959-2.41 1.24-5.25.58-10.729.75-16.09-.17-8.76.371-17.56-.31-26.31-.289-3.15-4.068-3.02-6.399-3.12zM261.35 2.01c7-.021 14 0 21-.01.01 17.68 0 35.36 0 53.04.041 2.34-.01 4.7.43 7.01.32 2.65 4.99 2.53 5.191-.13.469-2.279.42-4.62.449-6.93-.02-17.66.01-35.32-.02-52.98 7-.03 14 0 21.01-.01-.02 17 .061 34-.04 50.99-.22 4.68.3 9.83-2.479 13.9-3.311 5.549-9.74 8.369-15.961 9.029-7.879.9-16.449-.029-23.049-4.77-4.15-2.95-6.32-8.03-6.271-13.051-.501-18.688-.15-37.388-.26-56.088zM313.939 2h46.23c.01 4.87 0 9.73.01 14.6-4.18 0-8.359-.01-12.529.01V74.8c-7.061 0-14.121.011-21.18-.01V16.61c-4.16-.01-8.32-.02-12.48 0-.09-4.87-.041-9.74-.051-14.61zM363.96 2c6.479.08 12.96-.17 19.44.13 3.979 13.07 8.33 26.02 12.449 39.05.951 3.221 2.51 6.37 2.41 9.801-.05 8.069-.01 16.14-.029 24.209-6.49.011-12.971.011-19.461 0 0-7.739-.029-15.479.021-23.229.021-1.739-.091-3.51-.64-5.181-4.759-14.91-9.451-29.85-14.19-44.78zM394.25 2.01c6.439-.021 12.88 0 19.32-.01-4.541 13.78-9.02 27.58-13.561 41.359-2.88-9.199-6.109-18.31-8.72-27.58.611-4.649 2.022-9.169 2.961-13.769z"/> <path d="M178.54 19.46c3.7-1.63 9.24-.05 9.85 4.41.41 5.38.45 10.84-.04 16.22-1.12 6.189-11.47 6.48-13.1.48-.8-4.81-.35-9.76-.37-14.62-.12-2.63 1.11-5.46 3.66-6.49m2.52 3.44c-.44 5.95-.26 11.93-.11 17.89l1.41-.46c.63-5.49.44-11.12.13-16.63-.35-.2-1.07-.6-1.43-.8zM190.58 19.41c3.19-.01 6.37-.02 9.55 0-.01 1.65-.02 3.31-.02 4.97l-3.87.03c0 1.59-.01 3.18-.01 4.77 1.15.01 2.31.02 3.48.04 0 1.52 0 3.04.01 4.56l-3.48.03c0 3.53-.01 7.049 0 10.581-1.89 0-3.77.01-5.649.02-.011-8.341-.001-16.671-.011-25.001z"/> <g> <path d="M405.818 68.295c1.357 0 2.475.426 3.351 1.279.877.854 1.315 1.861 1.315 3.022 0 1.183-.445 2.196-1.336 3.038s-1.961 1.264-3.212 1.264c-1.259 0-2.331-.42-3.218-1.261s-1.33-1.854-1.33-3.041c0-.835.234-1.602.703-2.3.47-.699 1.057-1.207 1.762-1.525.704-.318 1.36-.476 1.965-.476zm.225.836c-1.115 0-2.02.349-2.713 1.045-.692.696-1.039 1.504-1.039 2.421 0 .95.358 1.765 1.075 2.442.716.678 1.577 1.018 2.582 1.018 1.001 0 1.86-.34 2.577-1.018.716-.678 1.074-1.492 1.074-2.442 0-.655-.18-1.259-.54-1.812s-.823-.966-1.39-1.241c-.565-.274-1.107-.413-1.626-.413zm-2.107 5.763v-4.565h2.286c.565 0 .978.124 1.235.373.257.249.385.555.385.918 0 .352-.107.635-.323.848-.216.214-.541.357-.977.434.198.07.355.167.472.289.117.121.303.385.556.789l.563.915h-1.205l-.403-.735c-.241-.438-.454-.736-.638-.896-.185-.158-.426-.238-.722-.238h-.255v1.87h-.974zm.974-2.595h.795c.4 0 .684-.05.852-.148.168-.1.252-.262.252-.486a.497.497 0 0 0-.248-.455c-.167-.102-.418-.151-.754-.151h-.896v1.24z"/> </g> </g>

</svg>