<!DOCTYPE svg PUBLIC "-//W3C//DTD SVG 1.1//EN" "http://www.w3.org/Graphics/SVG/1.1/DTD/svg11.dtd">

<!-- Uploaded to: SVG Repo, www.svgrepo.com, Transformed by: SVG Repo Mixer Tools -->
<svg viewBox="0 0 9.81 9.81" style="shape-rendering:geometricPrecision; text-rendering:geometricPrecision; image-rendering:optimizeQuality; fill-rule:evenodd; clip-rule:evenodd" version="1.1" xml:space="preserve" xmlns="http://www.w3.org/2000/svg" xmlns:xlink="http://www.w3.org/1999/xlink" xmlns:xodm="http://www.corel.com/coreldraw/odm/2003" fill="#000000">

<g id="SVGRepo_bgCarrier" stroke-width="0"/>

<g id="SVGRepo_tracerCarrier" stroke-linecap="round" stroke-linejoin="round"/>

<g id="SVGRepo_iconCarrier"> <defs> <style type="text/css">  .fil0 {fill:none} .fil2 {fill:#ffffff;fill-rule:nonzero} .fil1 {fill:#479DFF;fill-rule:nonzero}  </style> </defs> <g id="Layer_x0020_1"> <rect class="fil0" height="9.81" width="9.81"/> <path class="fil1" d="M4.91 4.92c-0.27,0 -0.51,-0.11 -0.68,-0.28l0 0c-0.18,-0.18 -0.29,-0.42 -0.29,-0.68 0,-0.27 0.11,-0.51 0.29,-0.68l0 0c0.17,-0.18 0.41,-0.29 0.68,-0.29 0.26,0 0.5,0.11 0.68,0.29l0 0c0.17,0.17 0.28,0.41 0.28,0.68 0,0.26 -0.11,0.5 -0.28,0.68l0 0c-0.18,0.17 -0.42,0.28 -0.68,0.28zm-0.46 -0.51c0.12,0.12 0.28,0.19 0.46,0.19 0.17,0 0.34,-0.07 0.45,-0.19 0.12,-0.11 0.19,-0.27 0.19,-0.45 0,-0.18 -0.07,-0.34 -0.19,-0.46 -0.11,-0.12 -0.28,-0.19 -0.45,-0.19 -0.18,0 -0.34,0.07 -0.46,0.19 -0.12,0.12 -0.19,0.28 -0.19,0.46 0,0.18 0.07,0.34 0.19,0.45z"/> <path class="fil2" d="M4.91 6.82l-1.61 0c-0.09,0 -0.16,-0.07 -0.16,-0.16l0 -0.55c0,-0.44 0.47,-0.71 1.08,-0.82 0.22,-0.04 0.45,-0.06 0.69,-0.06 0.23,0 0.46,0.02 0.68,0.06 0.61,0.11 1.08,0.38 1.08,0.82l0 0.55c0,0.09 -0.07,0.16 -0.15,0.16l-1.61 0zm-1.45 -0.32l2.9 0 0 -0.39c0,-0.25 -0.36,-0.43 -0.82,-0.51 -0.2,-0.04 -0.42,-0.05 -0.63,-0.05 -0.22,0 -0.44,0.01 -0.63,0.05 -0.46,0.08 -0.82,0.26 -0.82,0.51l0 0.39z"/> </g> </g>

</svg>