<!DOCTYPE svg PUBLIC "-//W3C//DTD SVG 1.1//EN" "http://www.w3.org/Graphics/SVG/1.1/DTD/svg11.dtd">

<!-- Uploaded to: SVG Repo, www.svgrepo.com, Transformed by: SVG Repo Mixer Tools -->
<svg fill="#000" width="800px" height="800px" viewBox="0 0 32 32" version="1.1" xmlns="http://www.w3.org/2000/svg">

<g id="SVGRepo_bgCarrier" stroke-width="0"/>

<g id="SVGRepo_tracerCarrier" stroke-linecap="round" stroke-linejoin="round"/>

<g id="SVGRepo_iconCarrier"> <title>hackerone</title> <path d="M21.911 11.829c-0.038-0.002-0.082-0.003-0.126-0.003-0.494 0-0.955 0.141-1.345 0.385l0.011-0.006-5.547 3.477c-0.205 0.218-0.331 0.513-0.331 0.837 0 0.082 0.008 0.162 0.023 0.239l-0.001-0.008c0.065 0.535 0.303 1.006 0.655 1.363l-0-0c0.342 0.396 0.798 0.685 1.318 0.814l0.018 0.004c0.118 0.043 0.253 0.067 0.395 0.067 0.274 0 0.527-0.093 0.728-0.248l-0.003 0.002 2.193-1.368v12.224c0.027 0.403 0.249 0.749 0.571 0.948l0.005 0.003c0.372 0.274 0.84 0.439 1.346 0.439 0.032 0 0.064-0.001 0.096-0.002l-0.005 0c0.020 0.001 0.043 0.001 0.066 0.001 0.534 0 1.030-0.164 1.44-0.444l-0.009 0.006c0.351-0.189 0.594-0.538 0.632-0.946l0-0.005v-16.434c-0.009-0.422-0.253-0.786-0.606-0.966l-0.006-0.003c-0.404-0.238-0.89-0.378-1.409-0.378-0.038 0-0.076 0.001-0.114 0.002l0.005-0zM10.010 1.004c-0.033-0.001-0.072-0.002-0.111-0.002-0.505 0-0.977 0.14-1.379 0.384l0.012-0.007c-0.342 0.197-0.569 0.559-0.574 0.974v27.254c0.031 0.406 0.259 0.753 0.588 0.948l0.006 0.003c0.383 0.274 0.86 0.439 1.376 0.439 0.029 0 0.057-0 0.085-0.002l-0.004 0c0.014 0 0.030 0 0.047 0 0.528 0 1.017-0.164 1.421-0.443l-0.008 0.005c0.351-0.189 0.594-0.538 0.632-0.946l0-0.005v-27.251c-0.009-0.424-0.252-0.79-0.605-0.973l-0.006-0.003c-0.402-0.237-0.886-0.376-1.402-0.376-0.027 0-0.055 0-0.082 0.001l0.004-0z"/> </g>

</svg>