<!DOCTYPE svg PUBLIC "-//W3C//DTD SVG 1.1//EN" "http://www.w3.org/Graphics/SVG/1.1/DTD/svg11.dtd">
<!-- Uploaded to: SVG Repo, www.svgrepo.com, Transformed by: SVG Repo Mixer Tools -->
<svg fill="#ffffff" width="800px" height="800px" viewBox="0 0 32 32" version="1.1" xmlns="http://www.w3.org/2000/svg">
<g id="SVGRepo_bgCarrier" stroke-width="0"/>
<g id="SVGRepo_tracerCarrier" stroke-linecap="round" stroke-linejoin="round"/>
<g id="SVGRepo_iconCarrier"> <title>lichess</title> <path d="M14.072 8.703c-0.025-0.008-0.054-0.012-0.084-0.012-0.136 0-0.25 0.092-0.285 0.216l-0.001 0.002c-1 3.48 3.523 6.972 6.516 9.282 0.816 0.63 1.52 1.173 1.988 1.615 1.304 1.152 2.433 2.457 3.371 3.898l0.045 0.073c0.051 0.097 0.151 0.163 0.267 0.163 0.027 0 0.054-0.004 0.079-0.011l-0.002 0c0.059-0.016 5.906-1.625 4.916-5.716-0.007-0.028-0.017-0.053-0.030-0.077l0.001 0.002-7.099-12.878 0.907-3.889c0.005-0.020 0.008-0.044 0.008-0.068 0-0.166-0.134-0.3-0.3-0.3-0.012 0-0.025 0.001-0.037 0.002l0.001-0c-2.1 0.084-4.032 0.737-5.666 1.807l0.043-0.026c-6.053-0.404-10.894 1.125-14.012 4.422-2.295 2.545-3.699 5.932-3.699 9.648 0 0.635 0.041 1.261 0.121 1.874l-0.008-0.072c0.909 5.993 5.44 10.714 11.256 11.896l0.092 0.016c1.096 0.267 2.356 0.422 3.65 0.425h0.002c0.147 0.007 0.319 0.010 0.492 0.010 3.868 0 7.296-1.886 9.415-4.788l0.023-0.033c0.031-0.046 0.049-0.103 0.049-0.165 0-0.166-0.134-0.3-0.3-0.3-0.084 0-0.16 0.034-0.214 0.090l-0 0c-2.414 2.412-5.748 3.904-9.43 3.904-2.668 0-5.152-0.783-7.237-2.132l0.052 0.032c-3.669-2.176-6.090-6.117-6.090-10.622 0-1.93 0.444-3.756 1.236-5.382l-0.032 0.073c2.076-4.145 6.291-6.941 11.159-6.941 1.111 0 2.188 0.146 3.213 0.419l-0.087-0.020c0.016 0.003 0.035 0.005 0.053 0.005 0.056 0 0.109-0.015 0.154-0.042l-0.001 0.001 0.419-0.246c1.026-0.712 2.225-1.262 3.516-1.583l0.075-0.016-0.867 2.491c-0.011 0.029-0.017 0.064-0.017 0.099 0 0.057 0.015 0.109 0.042 0.155l-0.001-0.001 7.6 12.736c-0.053 1.621-1.221 2.954-2.76 3.259l-0.022 0.004c-0.755-1.374-1.718-2.535-2.862-3.487l-0.019-0.016c-0.785-0.67-1.651-1.312-2.56-1.893l-0.094-0.056c-2.954-2.001-7.419-5.024-6.737-7.478 0.007-0.024 0.011-0.052 0.011-0.081 0-0.136-0.091-0.251-0.215-0.287l-0.002-0.001z"/> </g>
</svg>