<?xml version="1.0" encoding="UTF-8" standalone="no"?>
<!-- Generator: Adobe Illustrator 19.1.0, SVG Export Plug-In . SVG Version: 6.00 Build 0)  -->

<svg
   version="1.1"
   id="Layer_1"
   x="0px"
   y="0px"
   viewBox="0 0 400 134.7"
   xml:space="preserve"
   sodipodi:docname="315949ff623122869508aabcd20d62f0.svg"
   width="400"
   height="134.7"
   xmlns:inkscape="http://www.inkscape.org/namespaces/inkscape"
   xmlns:sodipodi="http://sodipodi.sourceforge.net/DTD/sodipodi-0.dtd"
   xmlns="http://www.w3.org/2000/svg"
   xmlns:svg="http://www.w3.org/2000/svg"><defs
   id="defs23" /><sodipodi:namedview
   id="namedview21"
   pagecolor="#ffffff"
   bordercolor="#666666"
   borderopacity="1.0"
   inkscape:pageshadow="2"
   inkscape:pageopacity="0.0"
   inkscape:pagecheckerboard="0" />
<style
   type="text/css"
   id="style2">
	.st0{fill:#007DC1;}
</style>
<g
   id="g18">
	<g
   id="g12">
		<g
   id="g6">
			<path
   class="st0"
   d="M 50.3,33.8 C 22.5,33.8 0,56.3 0,84.1 c 0,27.8 22.5,50.3 50.3,50.3 27.8,0 50.3,-22.5 50.3,-50.3 0,-27.8 -22.5,-50.3 -50.3,-50.3 z m 0,75.5 C 36.4,109.3 25.1,98 25.1,84.1 c 0,-13.9 11.3,-25.2 25.2,-25.2 13.9,0 25.2,11.3 25.2,25.2 0,13.9 -11.3,25.2 -25.2,25.2 z"
   id="path4" />
		</g>
		<path
   class="st0"
   d="m 138.7,101 c 0,-4 4.8,-5.9 7.6,-3.1 12.6,12.8 33.4,34.8 33.5,34.9 0.3,0.3 0.6,0.8 1.8,1.2 0.5,0.2 1.3,0.2 2.2,0.2 h 22.7 c 4.1,0 5.3,-4.7 3.4,-7.1 l -37.6,-38.5 -2,-2 c -4.3,-5.1 -3.8,-7.1 1.1,-12.3 L 201.2,41 c 1.9,-2.4 0.7,-7 -3.5,-7 h -20.6 c -0.8,0 -1.4,0 -2,0.2 -1.2,0.4 -1.7,0.8 -2,1.2 -0.1,0.1 -16.6,17.9 -26.8,28.8 -2.8,3 -7.8,1 -7.8,-3.1 V 4 c 0,-2.9 -2.4,-4 -4.3,-4 h -16.8 c -2.9,0 -4.3,1.9 -4.3,3.6 v 126.6 c 0,2.9 2.4,3.7 4.4,3.7 h 16.8 c 2.6,0 4.3,-1.9 4.3,-3.8 V 128.8 101 Z"
   id="path8" />
		<path
   class="st0"
   d="m 275.9,129.6 -1.8,-16.8 c -0.2,-2.3 -2.4,-3.9 -4.7,-3.5 -1.3,0.2 -2.6,0.3 -3.9,0.3 -13.4,0 -24.3,-10.5 -25.1,-23.8 0,-0.4 0,-0.9 0,-1.4 V 63.8 c 0,-2.7 2,-4.9 4.7,-4.9 h 22.5 c 1.6,0 4,-1.4 4,-4.3 V 38.7 c 0,-3.1 -2,-4.7 -3.8,-4.7 h -22.7 c -2.6,0 -4.7,-1.9 -4.8,-4.5 V 4 c 0,-1.6 -1.2,-4 -4.3,-4 h -16.7 c -2.1,0 -4.1,1.3 -4.1,3.9 0,0 0,81.5 0,81.9 0.7,27.2 23,48.9 50.3,48.9 2.3,0 4.5,-0.2 6.7,-0.5 2.4,-0.3 4,-2.3 3.7,-4.6 z"
   id="path10" />
	</g>
	<g
   id="g16">
		<path
   class="st0"
   d="m 397.1,108.5 c -14.2,0 -16.4,-5.1 -16.4,-24.2 0,-0.1 0,-0.1 0,-0.2 V 38.2 c 0,-1.6 -1.2,-4.3 -4.4,-4.3 h -16.8 c -2.1,0 -4.4,1.7 -4.4,4.3 v 2.1 c -7.3,-4.2 -15.8,-6.6 -24.8,-6.6 -27.8,0 -50.3,22.5 -50.3,50.3 0,27.8 22.5,50.3 50.3,50.3 12.5,0 23.9,-4.6 32.7,-12.1 4.7,7.2 12.3,12 24.2,12.1 2,0 12.8,0.4 12.8,-4.7 v -17.9 c 0,-1.5 -1.2,-3.2 -2.9,-3.2 z m -66.7,0.8 c -13.9,0 -25.2,-11.3 -25.2,-25.2 0,-13.9 11.3,-25.2 25.2,-25.2 13.9,0 25.2,11.3 25.2,25.2 -0.1,13.9 -11.4,25.2 -25.2,25.2 z"
   id="path14" />
	</g>
</g>
</svg>
