<!DOCTYPE svg PUBLIC "-//W3C//DTD SVG 1.1//EN" "http://www.w3.org/Graphics/SVG/1.1/DTD/svg11.dtd">

<!-- Uploaded to: SVG Repo, www.svgrepo.com, Transformed by: SVG Repo Mixer Tools -->
<svg width="800px" height="800px" viewBox="0 -1043 3086 3086" xmlns="http://www.w3.org/2000/svg" fill="#000000">

<g id="SVGRepo_bgCarrier" stroke-width="0"/>

<g id="SVGRepo_tracerCarrier" stroke-linecap="round" stroke-linejoin="round"/>

<g id="SVGRepo_iconCarrier">

<title>plex-logo-light</title>

<path fill="#000" d="M3085.99 0h-290.001L2505.99 500l289.999 500h289.748l-289.748-499.75L3085.99 0"/>

<radialGradient id="a" cx="1244.351" cy="920.081" r=".925" gradientTransform="matrix(610 0 0 -1000.5 -756323.625 921038.75)" gradientUnits="userSpaceOnUse">

<stop offset="0" stop-color="#f9be03"/>

<stop offset="1" stop-color="#cc7c19"/>

</radialGradient>

<path fill="url(#a)" d="M2186 0h290l320 500.25-320 500.25h-290l319.999-500.25L2186 0"/>

<path fill="#000" d="M2085.947 1000h-577.073V0h577.073v173.737H1721.34v219.562h339.255V567.03H1721.34v257.864h364.607V1000M791.276 1000V0h212.04v824.895h405.609V1000H791.276M589.947 558.824c-67.268 57.007-162.91 85.501-286.938 85.501H212.04V1000H0V470.338l290 .359c177.562-2.069 186.842-110.818 186.842-148.497 0-34.979 0-146.755-157.842-148.5l-319 .003V0h319.424c121.293 0 213.515 26.107 276.677 78.321 63.152 52.213 94.733 130.071 94.733 233.581 0 107.625-33.633 189.928-100.887 246.922z"/>

<path fill="#000" d="M0 110h212.2v429H0z"/>

</g>

</svg>