<!DOCTYPE svg PUBLIC "-//W3C//DTD SVG 1.1//EN" "http://www.w3.org/Graphics/SVG/1.1/DTD/svg11.dtd">
<!-- Uploaded to: SVG Repo, www.svgrepo.com, Transformed by: SVG Repo Mixer Tools -->
<svg fill="#ffffff" width="800px" height="800px" viewBox="0 0 32 32" version="1.1" xmlns="http://www.w3.org/2000/svg">
<g id="SVGRepo_bgCarrier" stroke-width="0"/>
<g id="SVGRepo_tracerCarrier" stroke-linecap="round" stroke-linejoin="round"/>
<g id="SVGRepo_iconCarrier"> <title>vmware</title> <path d="M21.565 15.988c0.471 0 0.925 0.070 1.354 0.2l-0.033-0.009v0.434c-0.068 0.69-0.646 1.225-1.348 1.225-0.053 0-0.106-0.003-0.158-0.009l0.006 0.001c-0.606 0-1.13-0.326-1.13-0.891 0-0.584 0.469-0.95 1.308-0.95zM28.919 14.261c0.791 0.022 1.424 0.669 1.424 1.464 0 0.019-0 0.038-0.001 0.056l0-0.003h-2.847c0.003-0.805 0.628-1.463 1.419-1.518l0.005-0zM21.772 13.723c-0.007-0-0.016-0-0.024-0-0.061 0-0.121 0.003-0.181 0.008l0.008-0.001c-0.039-0.002-0.085-0.003-0.132-0.003-0.44 0-0.858 0.095-1.234 0.267l0.019-0.008c-0.106 0.040-0.179 0.14-0.179 0.258 0 0.007 0 0.014 0.001 0.021l-0-0.001c0.007 0.158 0.135 0.283 0.293 0.286h0c0.044-0.003 0.084-0.014 0.121-0.031l-0.002 0.001c0.277-0.129 0.601-0.205 0.943-0.205 0.035 0 0.069 0.001 0.104 0.002l-0.005-0c0.863 0 1.337 0.417 1.337 1.223v0.156c-0.396-0.119-0.851-0.188-1.321-0.188-0.020 0-0.040 0-0.060 0l0.003-0c-1.115 0-1.899 0.5-1.899 1.45l-0.004-0.005c0.055 0.788 0.708 1.405 1.505 1.405 0.060 0 0.119-0.003 0.177-0.010l-0.007 0.001c0.017 0 0.037 0.001 0.056 0.001 0.637 0 1.202-0.302 1.562-0.771l0.003-0.005v0.429c0 0.001-0 0.003-0 0.004 0 0.17 0.138 0.309 0.309 0.309 0.003 0 0.006-0 0.009-0h-0c0.002 0 0.003 0 0.005 0 0.175 0 0.317-0.142 0.317-0.317 0-0.004-0-0.007-0-0.011v0-2.478c0.002-0.030 0.003-0.064 0.003-0.099 0-0.467-0.181-0.893-0.477-1.209l0.001 0.001c-0.333-0.291-0.769-0.471-1.248-0.481l-0.002-0zM28.95 13.721c-1.177 0.039-2.117 1.003-2.117 2.186 0 0.045 0.001 0.089 0.004 0.133l-0-0.006c-0.002 0.035-0.003 0.075-0.003 0.116 0 1.217 0.986 2.204 2.202 2.206h0l-0.010 0.016c0.019 0.001 0.042 0.001 0.064 0.001 0.626 0 1.192-0.258 1.597-0.674l0-0c0.060-0.052 0.098-0.128 0.098-0.213 0-0.155-0.126-0.281-0.281-0.281-0.072 0-0.138 0.027-0.188 0.072l0-0c-0.324 0.321-0.769 0.519-1.261 0.519-0.004 0-0.008 0-0.011-0h0.001c-0.001 0-0.003 0-0.004 0-0.841 0-1.524-0.671-1.545-1.506l-0-0.002h3.193c0.17-0.001 0.307-0.139 0.307-0.309 0 0 0-0 0-0v0c0.004-0.051 0.007-0.11 0.007-0.17 0-1.141-0.915-2.068-2.051-2.087l-0.002-0zM16.244 13.711c-0.155 0.010-0.281 0.122-0.312 0.269l-0 0.002-1.14 3.283-1.127-3.274c-0.036-0.158-0.175-0.275-0.342-0.275-0 0-0 0-0.001 0h0c-0.002-0-0.003-0-0.005-0-0.18 0-0.327 0.143-0.332 0.322v0.001c0.005 0.066 0.021 0.127 0.044 0.184l-0.002-0.004 1.362 3.795 0.025-0.009c0.043 0.17 0.192 0.296 0.372 0.302l0.001 0c0.181-0.001 0.331-0.129 0.366-0.3l0-0.002 1.129-3.228 1.12 3.228c0.035 0.173 0.185 0.302 0.366 0.302h0.023c0.177-0.010 0.323-0.134 0.366-0.3l0.001-0.003 1.371-3.796c0.021-0.053 0.036-0.114 0.041-0.178l0-0.002c-0.006-0.174-0.148-0.313-0.322-0.313-0.003 0-0.006 0-0.009 0h0c-0.001 0-0.001 0-0.002 0-0.157 0-0.289 0.111-0.32 0.259l-0 0.002-1.147 3.287-1.13-3.282c-0.040-0.157-0.179-0.271-0.346-0.271-0.001 0-0.001 0-0.002 0h-0.046zM24.66 13.701c-0.184 0.003-0.332 0.153-0.332 0.337 0 0.002 0 0.004 0 0.005v-0h0.003v3.926c-0.002 0.014-0.003 0.030-0.003 0.046 0 0.186 0.151 0.337 0.337 0.337s0.337-0.151 0.337-0.337c0-0.016-0.001-0.032-0.003-0.048l0 0.002v-1.527c-0.010-0.071-0.015-0.153-0.015-0.236 0-0.931 0.694-1.699 1.593-1.816l0.009-0.001c0.168-0.018 0.298-0.159 0.298-0.331 0-0.004-0-0.008-0-0.012l0 0.001c0-0.004 0-0.009 0-0.014 0-0.178-0.144-0.322-0.322-0.322-0.004 0-0.007 0-0.011 0h0.001c-0.696 0.050-1.281 0.483-1.547 1.088l-0.005 0.012v-0.767c0-0.003 0-0.007 0-0.010 0-0.184-0.149-0.332-0.332-0.332-0.002 0-0.005 0-0.007 0h0zM1.629 13.626c-0.090 0.003-0.174 0.025-0.25 0.062l0.004-0.002c-0.224 0.097-0.378 0.316-0.378 0.572 0 0.101 0.024 0.197 0.067 0.282l-0.002-0.004 1.422 3.093c0.224 0.475 0.475 0.74 0.901 0.74 0.427 0 0.677-0.275 0.9-0.74l1.253-2.732c0.027-0.068 0.092-0.115 0.168-0.115 0.004 0 0.008 0 0.013 0l-0.001-0c0.109 0.002 0.196 0.091 0.196 0.2 0 0 0 0 0 0v0 2.647c-0.002 0.017-0.003 0.037-0.003 0.058 0 0.369 0.299 0.669 0.669 0.669s0.669-0.299 0.669-0.669c0-0.020-0.001-0.040-0.003-0.060l0 0.003v-2.162c-0-0.008-0.001-0.018-0.001-0.028 0-0.366 0.297-0.664 0.664-0.664 0.016 0 0.031 0.001 0.046 0.002l-0.002-0c0.008-0 0.018-0.001 0.027-0.001 0.359 0 0.65 0.291 0.65 0.65 0 0.014-0 0.028-0.001 0.041l0-0.002v2.162c-0.003 0.023-0.005 0.050-0.005 0.077 0 0.366 0.297 0.664 0.664 0.664 0.001 0 0.002 0 0.003 0h-0c0.371-0.001 0.672-0.302 0.672-0.674 0-0.023-0.001-0.046-0.004-0.069l0 0.003v-2.162c-0-0.008-0.001-0.018-0.001-0.028 0-0.366 0.297-0.664 0.664-0.664 0.015 0 0.029 0 0.044 0.001l-0.002-0c0.009-0 0.019-0.001 0.030-0.001 0.359 0 0.65 0.291 0.65 0.65 0 0.014-0 0.028-0.001 0.041l0-0.002v2.162c-0.002 0.022-0.004 0.047-0.004 0.072 0 0.369 0.299 0.668 0.668 0.668s0.668-0.299 0.668-0.668c0-0.025-0.001-0.049-0.004-0.074l0 0.003v-2.461c-0.002-0.85-0.692-1.538-1.542-1.538-0.022 0-0.043 0-0.064 0.001l0.003-0c-0.558 0.010-1.060 0.24-1.424 0.607l-0 0c-0.291-0.372-0.739-0.609-1.243-0.609-0.044 0-0.088 0.002-0.131 0.005l0.006-0c-0.523 0.049-0.988 0.27-1.343 0.605l0.001-0.001c-0.286-0.356-0.715-0.586-1.198-0.604l-0.003-0c-0.018-0.001-0.038-0.001-0.059-0.001-0.638 0-1.181 0.406-1.384 0.973l-0.003 0.010-0.911 2.144-1.166-2.753 0.014-0.005c-0.1-0.224-0.321-0.378-0.578-0.378-0.009 0-0.017 0-0.026 0.001l0.001-0z"/> </g>
</svg>