<?xml version="1.0" encoding="utf-8"?><!-- Uploaded to: SVG Repo, www.svgrepo.com, Generator: SVG Repo Mixer Tools -->
<svg width="800px" height="800px" viewBox="0 0 32 32" fill="none" xmlns="http://www.w3.org/2000/svg">
<path d="M2 11.6C2 8.23969 2 6.55953 2.65396 5.27606C3.2292 4.14708 4.14708 3.2292 5.27606 2.65396C6.55953 2 8.23969 2 11.6 2H20.4C23.7603 2 25.4405 2 26.7239 2.65396C27.8529 3.2292 28.7708 4.14708 29.346 5.27606C30 6.55953 30 8.23969 30 11.6V20.4C30 23.7603 30 25.4405 29.346 26.7239C28.7708 27.8529 27.8529 28.7708 26.7239 29.346C25.4405 30 23.7603 30 20.4 30H11.6C8.23969 30 6.55953 30 5.27606 29.346C4.14708 28.7708 3.2292 27.8529 2.65396 26.7239C2 25.4405 2 23.7603 2 20.4V11.6Z" fill="#4087FC"/>
<path d="M8.26667 10C7.56711 10 7 10.6396 7 11.4286V18.3571C7 20.369 8.44612 22 10.23 22L17.7333 21.9286C18.4329 21.9286 19 21.289 19 20.5V13.5C19 11.4881 17.2839 10 15.5 10L8.26667 10Z" fill="white"/>
<path d="M20.7122 12.7276C20.2596 13.1752 20 13.8211 20 14.5V17.3993C20 18.0782 20.2596 18.7242 20.7122 19.1717L23.5288 21.6525C24.1019 22.2191 25 21.7601 25 20.9005V11.1352C25 10.2755 24.1019 9.81654 23.5288 10.3832L20.7122 12.7276Z" fill="white"/>
</svg>